<?xml version="1.0" encoding="utf-8"?>
<!-- Generator: Adobe Illustrator 26.0.2, SVG Export Plug-In . SVG Version: 6.00 Build 0)  -->
<svg version="1.1" id="Capa_1" xmlns="http://www.w3.org/2000/svg" xmlns:xlink="http://www.w3.org/1999/xlink" x="0px" y="0px"
	 viewBox="0 0 501.11 147.9" style="enable-background:new 0 0 501.11 147.9;" xml:space="preserve">
<style type="text/css">
	.st0{display:none;}
	.st1{display:inline;}
	.st2{fill:#ffffff;}
	.st3{fill:#05bdde;}
	.st4{fill:#0c97c7;}
</style>
<g>
	<g class="st0">
		<path class="st1" d="M196.57,47.39v11.13h-52.66V47.39H196.57z M177.29,47.39v63.97H163.1V47.39H177.29z"/>
		<path class="st1" d="M214.83,45.35c2.72,0,4.08,1.39,4.08,4.17v4.91c0,2.78-1.36,4.17-4.08,4.17h-5.93
			c-2.72,0-4.08-1.39-4.08-4.17v-4.91c0-2.78,1.36-4.17,4.08-4.17H214.83z M218.63,65.56v45.8h-13.63v-45.8H218.63z"/>
		<path class="st1" d="M242.18,65.56l1.58,9.09l1.11,1.21v35.51h-13.72v-45.8H242.18z M263.04,64.36c8.65,0,12.98,4.23,12.98,12.7
			v34.3H262.3V81.33c0-2.04-0.37-3.44-1.11-4.22c-0.74-0.77-2.01-1.16-3.8-1.16c-1.98,0-4.02,0.39-6.12,1.16
			c-2.1,0.77-4.7,1.96-7.79,3.57l-0.65-7.7c3.28-2.78,6.63-4.91,10.06-6.4C256.32,65.1,259.71,64.36,263.04,64.36z"/>
		<path class="st1" d="M313.66,46.28c3.03,0,5.61,0.08,7.74,0.23c2.13,0.16,4.09,0.39,5.89,0.7c1.79,0.31,3.65,0.74,5.56,1.3
			l-1.11,10.38c-2.04-0.12-3.91-0.22-5.61-0.28c-1.7-0.06-3.52-0.11-5.47-0.14c-1.95-0.03-4.28-0.05-7-0.05
			c-3.15,0-5.61,0.62-7.37,1.85c-1.76,1.24-3.01,3.38-3.75,6.44c-0.74,3.06-1.11,7.28-1.11,12.66s0.37,9.6,1.11,12.66
			c0.74,3.06,1.99,5.21,3.75,6.44c1.76,1.24,4.22,1.85,7.37,1.85c4.27,0,7.85-0.06,10.75-0.19c2.91-0.12,5.78-0.34,8.62-0.65
			l1.21,10.38c-2.97,0.93-6,1.59-9.09,1.99c-3.09,0.4-6.92,0.6-11.5,0.6c-6.61,0-11.91-1.07-15.9-3.2
			c-3.99-2.13-6.86-5.61-8.62-10.43c-1.76-4.82-2.64-11.31-2.64-19.47s0.88-14.65,2.64-19.47c1.76-4.82,4.64-8.3,8.62-10.43
			C301.75,47.35,307.05,46.28,313.66,46.28z"/>
		<path class="st1" d="M365.03,64.36c5.75,0,10.35,0.79,13.81,2.36c3.46,1.58,5.95,4.13,7.46,7.65c1.51,3.52,2.27,8.25,2.27,14.19
			c0,5.81-0.76,10.48-2.27,14c-1.52,3.52-4,6.06-7.46,7.6c-3.46,1.54-8.07,2.32-13.81,2.32c-5.69,0-10.28-0.77-13.77-2.32
			c-3.49-1.54-6.01-4.08-7.56-7.6c-1.55-3.52-2.32-8.19-2.32-14c0-5.93,0.77-10.66,2.32-14.19c1.54-3.52,4.06-6.07,7.56-7.65
			C354.75,65.15,359.34,64.36,365.03,64.36z M365.03,74.37c-2.35,0-4.2,0.4-5.56,1.21c-1.36,0.8-2.32,2.23-2.87,4.26
			c-0.56,2.04-0.83,4.95-0.83,8.72c0,3.71,0.28,6.58,0.83,8.62c0.56,2.04,1.51,3.45,2.87,4.22c1.36,0.77,3.21,1.16,5.56,1.16
			c2.35,0,4.2-0.39,5.56-1.16c1.36-0.77,2.32-2.18,2.87-4.22c0.56-2.04,0.83-4.91,0.83-8.62c0-3.77-0.28-6.68-0.83-8.72
			c-0.56-2.04-1.51-3.46-2.87-4.26C369.23,74.77,367.38,74.37,365.03,74.37z"/>
		<path class="st1" d="M414.54,64.36c3.21,0,6.32,0.46,9.32,1.39s5.64,2.44,7.93,4.54l-0.93,6.3c-2.1-0.62-3.99-1.17-5.66-1.67
			c-1.67-0.49-3.62-0.74-5.84-0.74c-1.92,0-3.46,0.34-4.64,1.02c-1.17,0.68-2.04,2.01-2.6,3.99c-0.56,1.98-0.83,4.91-0.83,8.81
			c0,3.65,0.26,6.41,0.79,8.3c0.52,1.89,1.36,3.18,2.5,3.89c1.14,0.71,2.61,1.07,4.4,1.07c1.61,0,3-0.17,4.17-0.51
			c1.17-0.34,2.35-0.86,3.52-1.58c1.17-0.71,2.5-1.59,3.99-2.64l1.02,6.77c-1.85,2.6-4.26,4.77-7.23,6.54
			c-2.97,1.76-6.62,2.64-10.94,2.64c-5.87,0-10.06-2.1-12.56-6.3c-2.5-4.2-3.75-10.23-3.75-18.08c0-6.12,0.63-10.89,1.9-14.32
			c1.27-3.43,3.2-5.86,5.79-7.28C407.49,65.07,410.7,64.36,414.54,64.36z M443,46.47v64.9h-10.85l-1.39-8.44l-1.48-1.02V71.87
			l0.56-1.21c-0.19-1.92-0.32-3.85-0.42-5.79c-0.09-1.95-0.14-3.94-0.14-5.98V46.47H443z"/>
		<path class="st1" d="M476.84,64.36c7.73,0,13.27,1.31,16.64,3.94c3.37,2.63,5.05,6.54,5.05,11.73c0.06,4.2-0.99,7.34-3.15,9.41
			c-2.16,2.07-5.9,3.11-11.22,3.11h-25.59v-7.7h21.79c2.1,0,3.44-0.45,4.03-1.34c0.59-0.9,0.88-2.15,0.88-3.75
			c-0.06-2.16-0.7-3.66-1.9-4.5c-1.21-0.83-3.23-1.25-6.07-1.25c-2.54,0-4.51,0.34-5.93,1.02c-1.42,0.68-2.41,1.98-2.97,3.89
			c-0.56,1.92-0.83,4.7-0.83,8.34c0,3.83,0.34,6.78,1.02,8.85c0.68,2.07,1.84,3.51,3.48,4.31c1.64,0.8,3.91,1.21,6.81,1.21
			c2.1,0,4.71-0.08,7.83-0.23c3.12-0.15,6.26-0.42,9.41-0.79l1.3,8.44c-1.79,0.87-3.83,1.55-6.12,2.04
			c-2.29,0.49-4.64,0.85-7.05,1.07c-2.41,0.22-4.73,0.32-6.95,0.32c-5.81,0-10.49-0.85-14.05-2.55c-3.56-1.7-6.12-4.31-7.7-7.83
			c-1.58-3.52-2.36-8.03-2.36-13.54c0-5.99,0.8-10.75,2.41-14.28c1.61-3.52,4.14-6.06,7.6-7.6
			C466.67,65.13,471.21,64.36,476.84,64.36z"/>
	</g>
</g>
<g>
	<g>
		<path class="st2" d="M196.74,47.39v11.13h-52.66V47.39H196.74z M177.46,47.39v63.97h-14.19V47.39H177.46z"/>
		<path class="st2" d="M215.01,45.35c2.72,0,4.08,1.39,4.08,4.17v4.91c0,2.78-1.36,4.17-4.08,4.17h-5.93
			c-2.72,0-4.08-1.39-4.08-4.17v-4.91c0-2.78,1.36-4.17,4.08-4.17H215.01z M218.81,65.56v45.8h-13.63v-45.8H218.81z"/>
		<path class="st2" d="M242.36,65.56l1.58,9.09l1.11,1.21v35.51h-13.72v-45.8H242.36z M263.22,64.36c8.65,0,12.98,4.23,12.98,12.7
			v34.3h-13.72V81.33c0-2.04-0.37-3.44-1.11-4.22c-0.74-0.77-2.01-1.16-3.8-1.16c-1.98,0-4.02,0.39-6.12,1.16
			c-2.1,0.77-4.7,1.96-7.79,3.57l-0.65-7.7c3.28-2.78,6.63-4.91,10.06-6.4C256.49,65.1,259.88,64.36,263.22,64.36z"/>
		<path class="st2" d="M313.84,46.28c3.03,0,5.61,0.08,7.74,0.23c2.13,0.16,4.09,0.39,5.89,0.7c1.79,0.31,3.65,0.74,5.56,1.3
			l-1.11,10.38c-2.04-0.12-3.91-0.22-5.61-0.28c-1.7-0.06-3.52-0.11-5.47-0.14c-1.95-0.03-4.28-0.05-7-0.05
			c-3.15,0-5.61,0.62-7.37,1.85c-1.76,1.24-3.01,3.38-3.75,6.44c-0.74,3.06-1.11,7.28-1.11,12.66s0.37,9.6,1.11,12.66
			c0.74,3.06,1.99,5.21,3.75,6.44c1.76,1.24,4.22,1.85,7.37,1.85c4.27,0,7.85-0.06,10.75-0.19c2.91-0.12,5.78-0.34,8.62-0.65
			l1.21,10.38c-2.97,0.93-6,1.59-9.09,1.99c-3.09,0.4-6.92,0.6-11.5,0.6c-6.61,0-11.91-1.07-15.9-3.2
			c-3.99-2.13-6.86-5.61-8.62-10.43c-1.76-4.82-2.64-11.31-2.64-19.47s0.88-14.65,2.64-19.47c1.76-4.82,4.64-8.3,8.62-10.43
			C301.92,47.35,307.22,46.28,313.84,46.28z"/>
		<path class="st2" d="M365.2,64.36c5.75,0,10.35,0.79,13.81,2.36c3.46,1.58,5.95,4.13,7.46,7.65c1.51,3.52,2.27,8.25,2.27,14.19
			c0,5.81-0.76,10.48-2.27,14c-1.52,3.52-4,6.06-7.46,7.6c-3.46,1.54-8.07,2.32-13.81,2.32c-5.69,0-10.28-0.77-13.77-2.32
			c-3.49-1.54-6.01-4.08-7.56-7.6c-1.55-3.52-2.32-8.19-2.32-14c0-5.93,0.77-10.66,2.32-14.19c1.54-3.52,4.06-6.07,7.56-7.65
			C354.92,65.15,359.51,64.36,365.2,64.36z M365.2,74.37c-2.35,0-4.2,0.4-5.56,1.21c-1.36,0.8-2.32,2.23-2.87,4.26
			c-0.56,2.04-0.83,4.95-0.83,8.72c0,3.71,0.28,6.58,0.83,8.62c0.56,2.04,1.51,3.45,2.87,4.22c1.36,0.77,3.21,1.16,5.56,1.16
			c2.35,0,4.2-0.39,5.56-1.16c1.36-0.77,2.32-2.18,2.87-4.22c0.56-2.04,0.83-4.91,0.83-8.62c0-3.77-0.28-6.68-0.83-8.72
			c-0.56-2.04-1.51-3.46-2.87-4.26C369.4,74.77,367.55,74.37,365.2,74.37z"/>
		<path class="st2" d="M414.71,64.36c3.21,0,6.32,0.46,9.32,1.39s5.64,2.44,7.93,4.54l-0.93,6.3c-2.1-0.62-3.99-1.17-5.66-1.67
			c-1.67-0.49-3.62-0.74-5.84-0.74c-1.92,0-3.46,0.34-4.64,1.02c-1.17,0.68-2.04,2.01-2.6,3.99c-0.56,1.98-0.83,4.91-0.83,8.81
			c0,3.65,0.26,6.41,0.79,8.3c0.52,1.89,1.36,3.18,2.5,3.89c1.14,0.71,2.61,1.07,4.4,1.07c1.61,0,3-0.17,4.17-0.51
			c1.17-0.34,2.35-0.86,3.52-1.58c1.17-0.71,2.5-1.59,3.99-2.64l1.02,6.77c-1.85,2.6-4.26,4.77-7.23,6.54
			c-2.97,1.76-6.62,2.64-10.94,2.64c-5.87,0-10.06-2.1-12.56-6.3c-2.5-4.2-3.75-10.23-3.75-18.08c0-6.12,0.63-10.89,1.9-14.32
			c1.27-3.43,3.2-5.86,5.79-7.28C407.66,65.07,410.88,64.36,414.71,64.36z M443.17,46.47v64.9h-10.85l-1.39-8.44l-1.48-1.02V71.87
			l0.56-1.21c-0.19-1.92-0.32-3.85-0.42-5.79c-0.09-1.95-0.14-3.94-0.14-5.98V46.47H443.17z"/>
		<path class="st2" d="M477.01,64.36c7.73,0,13.27,1.31,16.64,3.94c3.37,2.63,5.05,6.54,5.05,11.73c0.06,4.2-0.99,7.34-3.15,9.41
			c-2.16,2.07-5.9,3.11-11.22,3.11h-25.59v-7.7h21.79c2.1,0,3.44-0.45,4.03-1.34c0.59-0.9,0.88-2.15,0.88-3.75
			c-0.06-2.16-0.7-3.66-1.9-4.5c-1.21-0.83-3.23-1.25-6.07-1.25c-2.54,0-4.51,0.34-5.93,1.02c-1.42,0.68-2.41,1.98-2.97,3.89
			c-0.56,1.92-0.83,4.7-0.83,8.34c0,3.83,0.34,6.78,1.02,8.85c0.68,2.07,1.84,3.51,3.48,4.31c1.64,0.8,3.91,1.21,6.81,1.21
			c2.1,0,4.71-0.08,7.83-0.23c3.12-0.15,6.26-0.42,9.41-0.79l1.3,8.44c-1.79,0.87-3.83,1.55-6.12,2.04
			c-2.29,0.49-4.64,0.85-7.05,1.07c-2.41,0.22-4.73,0.32-6.95,0.32c-5.81,0-10.49-0.85-14.05-2.55c-3.56-1.7-6.12-4.31-7.7-7.83
			c-1.58-3.52-2.36-8.03-2.36-13.54c0-5.99,0.8-10.75,2.41-14.28c1.61-3.52,4.14-6.06,7.6-7.6
			C466.84,65.13,471.39,64.36,477.01,64.36z"/>
	</g>
</g>
<g>
	<g>
		<g>
			<path class="st3" d="M59.64,92.18l-37.76-37.9c-1.64,3.87-3.49,11.72-2.09,21.93l27.84,27.94c1.66,1.66,3.83,2.49,6.01,2.49
				c2.16,0,4.33-0.82,5.98-2.47C62.94,100.87,62.95,95.5,59.64,92.18z"/>
		</g>
		<g>
			<path class="st4" d="M21.88,54.28l-0.1-0.1l34.09-36.84c3.18-3.44,2.97-8.8-0.46-11.98c-3.44-3.18-8.8-2.97-11.98,0.46L3.8,48.64
				c-3.09,3.34-2.99,8.52,0.22,11.74l15.77,15.83C18.39,66,20.25,58.15,21.88,54.28z"/>
		</g>
	</g>
</g>
<g>
	<path class="st3" d="M55.33,131.81l37.76-37.9c1.64,3.87,3.49,11.72,2.09,21.93l-27.84,27.94c-1.66,1.66-3.83,2.49-6.01,2.49
		c-2.16,0-4.33-0.82-5.98-2.47C52.04,140.5,52.03,135.13,55.33,131.81z"/>
	<path class="st4" d="M93.1,93.91l0.1-0.1L59.11,56.98c-3.18-3.44-2.97-8.8,0.46-11.98c3.44-3.18,8.8-2.97,11.98,0.46l39.62,42.81
		c3.09,3.34,2.99,8.52-0.22,11.74l-15.77,15.83C96.58,105.64,94.73,97.78,93.1,93.91z"/>
</g>
</svg>
